Coordinates
version=1
nRows=40
nColumns=30
inDegrees=yes

Units are S.I. units (second, meters, Newtons, ...)
Angles are in degrees.

endheader
time	floatyaw	floatroll	floatpitch	floatx	floaty	floatz	pro_sup_l	deviation_l	flexion_l	cmc_flexion_l	cmc_abduction_l	mp_flexion_l	ip_flexion_l	2mcp_flexion_l	2mcp_abduction_l	2pm_flexion_l	2md_flexion_l	3mcp_flexion_l	3mcp_abduction_l	3pm_flexion_l	3md_flexion_l	4mcp_flexion_l	4mcp_abduction_l	4pm_flexion_l	4md_flexion_l	5mcp_flexion_l	5mcp_abduction_l	5pm_flexion_l	5md_flexion_l
-0.495000	-160.147433	-5.066637	-73.570646	0.081950	-0.182623	-0.014843	100.532609	3.313011	-0.926717	13.697058	4.768469	-26.293801	-41.812751	31.853426	6.750934	42.243661	28.868865	24.827973	4.098325	44.922902	29.518184	13.283119	-4.349337	52.997544	36.829809	0.437350	-7.703858	63.854692	43.471022
-0.485000	-160.147433	-5.066637	-73.570646	0.081942	-0.182628	-0.014847	100.528014	3.308976	-0.930434	13.697880	4.758084	-26.312726	-41.837538	31.863157	6.752950	42.255190	28.865837	24.834012	4.099428	44.934501	29.520491	13.279272	-4.350257	53.019160	36.836335	0.446750	-7.707237	63.855430	43.466979
-0.475000	-160.147433	-5.066637	-73.570646	0.081935	-0.182627	-0.014846	100.526165	3.308806	-0.932057	13.703664	4.755583	-26.333663	-41.872463	31.870792	6.755687	42.267054	28.865245	24.842430	4.101352	44.941820	29.519664	13.278817	-4.350224	53.036715	36.841061	0.459278	-7.712037	63.860254	43.462938
-0.465000	-160.147433	-5.066637	-73.570646	0.081930	-0.182620	-0.014841	100.524356	3.311248	-0.929721	13.708974	4.767560	-26.352238	-41.904972	31.871206	6.759388	42.283689	28.872018	24.848501	4.102833	44.948433	29.520309	13.278290	-4.348951	53.049294	36.844185	0.471092	-7.716442	63.864929	43.460405
-0.455000	-160.147433	-5.066637	-73.570646	0.081927	-0.182609	-0.014833	100.519324	3.313256	-0.922272	13.708307	4.797266	-26.367499	-41.926305	31.862031	6.764539	42.306137	28.887589	24.848328	4.102721	44.956546	29.524979	13.273708	-4.346839	53.057481	36.846426	0.478220	-7.718482	63.863812	43.459258
-0.445000	-160.147433	-5.066637	-73.570646	0.081924	-0.182596	-0.014827	100.508479	3.310566	-0.909536	13.698108	4.841997	-26.382403	-41.935091	31.844955	6.771561	42.331222	28.909149	24.840845	4.100421	44.964924	29.532637	13.261964	-4.344942	53.063001	36.848622	0.476897	-7.716773	63.852700	43.458339
-0.435000	-160.147433	-5.066637	-73.570646	0.081921	-0.182581	-0.014828	100.491336	3.299112	-0.892368	13.678411	4.893176	-26.401978	-41.937158	31.825348	6.780492	42.352769	28.930774	24.828362	4.096018	44.969501	29.539460	13.241858	-4.344550	53.068189	36.851482	0.464550	-7.710973	63.831007	43.456560
-0.425000	-160.147433	-5.066637	-73.570646	0.081918	-0.182565	-0.014845	100.470130	3.276573	-0.872344	13.653021	4.939180	-26.430271	-41.941824	31.810451	6.790863	42.364045	28.945805	24.815406	4.090153	44.966101	29.541294	13.214486	-4.346568	53.075413	36.855603	0.440975	-7.701959	63.802633	43.454120
-0.415000	-160.147433	-5.066637	-73.570646	0.081914	-0.182547	-0.014882	100.449005	3.243211	-0.851144	13.627501	4.969504	-26.467575	-41.956387	31.806930	6.801869	42.360210	28.949279	24.806494	4.083872	44.953586	29.536217	13.182926	-4.350999	53.086653	36.861638	0.408814	-7.691938	63.775576	43.453383
-0.405000	-160.147433	-5.066637	-73.570646	0.081911	-0.182525	-0.014942	100.432254	3.201641	-0.829968	13.605827	4.978509	-26.509152	-41.981434	31.818660	6.812761	42.339889	28.939372	24.803827	4.078518	44.935657	29.525838	13.151254	-4.356806	53.103275	36.870356	0.372763	-7.684546	63.760349	43.458835
-0.395000	-160.147433	-5.066637	-73.570646	0.081906	-0.182494	-0.015025	100.423106	3.155800	-0.809136	13.588144	4.967569	-26.546195	-42.009707	31.845191	6.823178	42.305733	28.917650	24.805738	4.075618	44.920074	29.514660	13.123135	-4.362271	53.125723	36.882346	0.337814	-7.684650	63.766971	43.475569
-0.385000	-160.147433	-5.066637	-73.570646	0.081899	-0.182451	-0.015128	100.424500	3.109652	-0.787537	13.571831	4.944892	-26.569196	-42.029963	31.881015	6.833114	42.264362	28.888610	24.806407	4.076573	44.915012	29.507765	13.100405	-4.365788	53.152785	36.897344	0.307492	-7.697403	63.800755	43.506413
-0.375000	-160.147433	-5.066637	-73.570646	0.081886	-0.182389	-0.015253	100.441846	3.066006	-0.761483	13.555615	4.922731	-26.572830	-42.034679	31.916040	6.842520	42.225857	28.858943	24.797259	4.082110	44.923739	29.507768	13.082409	-4.366815	53.180444	36.913478	0.283082	-7.726562	63.858377	43.548957
-0.365000	-160.147433	-5.066637	-73.570646	0.081861	-0.182296	-0.015409	100.485755	3.025744	-0.723177	13.543387	4.912445	-26.560056	-42.027452	31.937885	6.850855	42.202408	28.836408	24.770318	4.091661	44.940406	29.512586	13.066886	-4.366486	53.200942	36.926954	0.264239	-7.772668	63.926823	43.594516
-0.355000	-160.147433	-5.066637	-73.570646	0.081813	-0.182150	-0.015621	100.571594	2.988119	-0.659988	13.543721	4.919157	-26.542708	-42.024860	31.935795	6.857080	42.205895	28.828183	24.722976	4.103085	44.950344	29.515554	13.052682	-4.367344	53.203134	36.932579	0.250787	-7.832126	63.987086	43.630455
-0.345000	-160.147433	-5.066637	-73.570646	0.081726	-0.181918	-0.015937	100.713633	2.953054	-0.556110	13.564191	4.938669	-26.537486	-42.050378	31.904437	6.860240	42.245320	28.839311	24.662290	4.113125	44.936672	29.508654	13.043372	-4.372025	53.175319	36.925300	0.245085	-7.897989	64.021823	43.645145
-0.335000	-160.147433	-5.066637	-73.570646	0.081576	-0.181559	-0.016422	100.914462	2.925799	-0.397321	13.604157	4.958645	-26.559347	-42.123348	31.845313	6.860291	42.325730	28.872307	24.606149	4.118753	44.891217	29.487794	13.049729	-4.381402	53.110920	36.902557	0.253973	-7.962373	64.023415	43.632937
-0.325000	-160.147433	-5.066637	-73.570646	0.081327	-0.181032	-0.017147	101.153940	2.922661	-0.177949	13.651106	4.963460	-26.615859	-42.249307	31.765125	6.858341	42.449019	28.928030	24.579614	4.118969	44.823650	29.457164	13.089018	-4.393250	53.015216	36.866696	0.289142	-8.019242	63.998415	43.596470
-0.315000	-160.147433	-5.066637	-73.570646	0.080934	-0.180306	-0.018173	101.383962	2.974793	0.092461	13.682820	4.939628	-26.704702	-42.416362	31.672611	6.855817	42.615028	29.006535	24.607222	4.116018	44.762021	29.429367	13.180987	-4.402334	52.908694	36.825953	0.365365	-8.065619	63.966411	43.545371
-0.305000	-160.147433	-5.066637	-73.570646	0.080342	-0.179365	-0.019531	101.533981	3.126471	0.385944	13.673668	4.878859	-26.814098	-42.597898	31.576032	6.852963	42.820974	29.106516	24.704404	4.114812	44.742246	29.420325	13.342655	-4.402169	52.822240	36.792347	0.497444	-8.100107	63.953621	43.492082
-0.295000	-160.147433	-5.066637	-73.570646	0.079484	-0.178204	-0.021222	101.527370	3.426078	0.658983	13.601774	4.778588	-26.925254	-42.759242	31.482131	6.847811	43.058953	29.223533	24.871767	4.120220	44.790978	29.441377	13.584796	-4.387640	52.782756	36.775929	0.697632	-8.119576	63.982387	43.446163
-0.285000	-160.147433	-5.066637	-73.570646	0.078289	-0.176823	-0.023221	101.302844	3.911714	0.861801	13.454322	4.642164	-27.016707	-42.865974	31.395838	6.836567	43.312926	29.348403	25.094684	4.133455	44.910282	29.492673	13.911657	-4.357198	52.793941	36.777179	0.974760	-8.116647	64.057734	43.408320
-0.275000	-160.147433	-5.066637	-73.570646	0.076693	-0.175211	-0.025492	100.831938	4.597042	0.951130	13.229309	4.480577	-27.070371	-42.892334	31.319961	6.815325	43.556825	29.466933	25.348490	4.149846	45.071175	29.560842	14.323416	-4.313493	52.821879	36.781665	1.334916	-8.080636	64.153757	43.365768
-0.265000	-160.147433	-5.066637	-73.570646	0.074643	-0.173341	-0.028003	100.124858	5.463942	0.900910	12.933273	4.315522	-27.077420	-42.827768	31.255379	6.782250	43.755346	29.561330	25.607448	4.159730	45.218845	29.621690	14.819825	-4.262085	52.794842	36.761193	1.782511	-8.003313	64.206560	43.291875
-0.255000	-160.147433	-5.066637	-73.570646	0.072103	-0.171172	-0.030737	99.222103	6.465632	0.705873	12.576798	4.182194	-27.040381	-42.678852	31.202580	6.739311	43.869071	29.613146	25.853877	4.152344	45.288249	29.647077	15.403309	-4.208762	52.620592	36.682876	2.320335	-7.888514	64.123492	43.153731
-0.245000	-160.147433	-5.066637	-73.570646	0.069041	-0.168653	-0.033695	98.175205	7.538750	0.376927	12.172014	4.129573	-26.968714	-42.464525	31.163842	6.693083	43.865077	29.607772	26.083147	4.120986	45.225742	29.614255	16.079820	-4.156832	52.216277	36.523448	2.947246	-7.761732	63.814436	42.928830
-0.235000	-160.147433	-5.066637	-73.570646	0.065419	-0.165754	-0.036892	97.023754	8.618808	-0.067759	11.735978	4.215461	-26.868909	-42.205274	31.143507	6.654229	43.731717	29.540181	26.301616	4.067180	45.010409	29.515311	16.855945	-4.106005	51.540553	36.283231	3.653296	-7.672923	63.238170	42.625735
-0.225000	-160.147433	-5.066637	-73.570646	0.061186	-0.162481	-0.040353	95.776485	9.652324	-0.609485	11.298939	4.493618	-26.734662	-41.910456	31.144217	6.635172	43.492578	29.420571	26.518347	4.001854	44.668043	29.363880	17.732197	-4.053803	50.616538	35.993602	4.414578	-7.685936	62.441905	42.297183
-0.215000	-160.147433	-5.066637	-73.570646	0.056274	-0.158899	-0.044097	94.402610	10.600664	-1.228683	10.910499	4.993291	-26.544681	-41.570677	31.159806	6.645975	43.212036	29.277420	26.735609	3.942311	44.271396	29.196054	18.694894	-3.999006	49.536696	35.713435	5.192718	-7.853349	61.566845	42.033155
-0.205000	-160.147433	-5.066637	-73.570646	0.050626	-0.155141	-0.048126	92.837513	11.433985	-1.897528	10.635853	5.697479	-26.273107	-41.162590	31.169048	6.689542	42.985988	29.155262	26.944291	3.905412	43.923450	29.063241	19.710835	-3.945366	48.445553	35.513533	5.943480	-8.185211	60.804773	41.929449
-0.195000	-160.147433	-5.066637	-73.570646	0.044220	-0.151391	-0.052407	91.003872	12.117863	-2.571206	10.541534	6.531266	-25.910435	-40.669567	31.136111	6.758351	42.916606	29.105895	27.127239	3.899740	43.726543	29.017527	20.729186	-3.903242	47.502258	35.452932	6.633854	-8.628677	60.317325	42.041978
-0.185000	-160.147433	-5.066637	-73.570646	0.037108	-0.147853	-0.056872	88.843169	12.598894	-3.186539	10.680058	7.369753	-25.484677	-40.113043	31.020758	6.835078	43.077802	29.174449	27.267984	3.920854	43.747558	29.093978	21.692647	-3.887369	46.832279	35.555592	7.259347	-9.075302	60.156239	42.350029
-0.175000	-160.147433	-5.066637	-73.570646	0.029414	-0.144716	-0.061431	86.344818	12.797040	-3.673575	11.085524	8.065221	-25.069246	-39.579724	30.793937	6.897327	43.484624	29.384539	27.357596	3.952237	43.993411	29.296946	22.554157	-3.910685	46.484420	35.797681	7.848772	-9.399440	60.230487	42.752093
-0.165000	-160.147433	-5.066637	-73.570646	0.021319	-0.142113	-0.065999	83.557360	12.610653	-3.976538	11.782825	8.481959	-24.768937	-39.225190	30.447324	6.923240	44.080560	29.727354	27.391328	3.970936	44.407834	29.596316	23.288968	-3.976506	46.411683	36.111898	8.448329	-9.510585	60.344054	43.100806
-0.155000	-160.147433	-5.066637	-73.570646	0.013004	-0.140116	-0.070530	80.574620	11.935667	-4.071894	12.798631	8.523951	-24.685175	-39.238929	29.986745	6.893685	44.750463	30.157730	27.352426	3.954425	44.891160	29.935368	23.891970	-4.073341	46.488011	36.407538	9.090519	-9.389804	60.287192	43.259085
-0.145000	-160.147433	-5.066637	-73.570646	0.004612	-0.138736	-0.075039	77.505335	10.695254	-3.971231	14.156798	8.148847	-24.872097	-39.772266	29.411502	6.791131	45.357334	30.598564	27.192347	3.886112	45.335306	30.247457	24.360469	-4.176310	46.558880	36.598666	9.766086	-9.089549	59.935020	43.149018
-0.135000	-160.147433	-5.066637	-73.570646	-0.003757	-0.137956	-0.079583	74.443740	8.871705	-3.706816	15.851240	7.373128	-25.303114	-40.856166	28.696740	6.601838	45.793810	30.956022	26.828081	3.759947	45.662302	30.477233	24.676571	-4.255760	46.509204	36.632388	10.416344	-8.702741	59.312835	42.779024
-0.125000	-160.147433	-5.066637	-73.570646	-0.012021	-0.137748	-0.084230	71.451562	6.528891	-3.311240	17.808313	6.275372	-25.869099	-42.355491	27.802587	6.329112	46.034578	31.149862	26.178129	3.586017	45.857008	30.603356	24.809826	-4.289548	46.324751	36.513229	10.950069	-8.328358	58.615303	42.257261
-0.115000	-160.147433	-5.066637	-73.570646	-0.020075	-0.138075	-0.089023	68.547774	3.812227	-2.809455	19.863413	4.994798	-26.418303	-43.998517	26.724532	6.017533	46.172454	31.160165	25.242542	3.396721	45.989300	30.660659	24.753493	-4.273989	46.125668	36.322238	11.277704	-8.057090	58.183723	41.802865
-0.105000	-160.147433	-5.066637	-73.570646	-0.027787	-0.138869	-0.093962	65.698937	0.917106	-2.235478	21.772374	3.713761	-26.826239	-45.481102	25.575167	5.775483	46.419280	31.080968	24.201713	3.248809	46.222895	30.757242	24.587253	-4.229577	46.159766	36.227201	11.353415	-7.976590	58.440498	41.745955
